# xmcd
#
# Track frame offsets: 
#        150
#        13119
#        38841
#        72365
#        95864
#        110037
#        138152
#        170832
#        189337
#        205587
#
# Disc length: 3139 seconds
#
# Revision: 12
# Processed by: cddbd v1.5.2PL0 Copyright (c) Steve Scherf et al.
# Submitted via: ExactAudioCopyFreeDBPlugin 1.0
#
DISCID=8e0c410a
DTITLE=Roy Buchanan - Messiah on Guitar
DYEAR=2007
DGENRE=Blues
TTITLE0=Short Fuse [Instrumental]
TTITLE1=Green Onions [Instrumental]
TTITLE2=When A Guitar Plays The Blues
TTITLE3=Pressure [Instrumental]
TTITLE4=Peter Gunn [Instrumental]
TTITLE5=Chicago Smoke Shop
TTITLE6=Blues in E [Instrumental]
TTITLE7=Hey Joe
TTITLE8=Foxy Lady
TTITLE9=The Messiah Will Come Again [Instrumental]
EXTD=
EXTT0=
EXTT1=
EXTT2=
EXTT3=
EXTT4=
EXTT5=
EXTT6=
EXTT7=
EXTT8=
EXTT9=
PLAYORDER=
